# xmcd CD database file
#
# Track frame offsets:
#	150
#	25855
#	45710
#	60093
#	81966
#	100238
#	118341
#	132904
#	154853
#	178438
#	196790
#	212160
#	231133
#
# Disc length: 3256 seconds
#
# Revision: 0
# Processed by: cddbd v1.5.2PL0 Copyright (c) Steve Scherf et al.
# Submitted via: CDex 1.51
#
DISCID=b10cb60d
DTITLE=Debo Son - Cuban Anthology
DYEAR=1900
DGENRE=Salsa
TTITLE0=Caballi viejo
TTITLE1=Na llega al alma
TTITLE2=Adios
TTITLE3=Chan chan
TTITLE4=A mi manera
TTITLE5=El cuarto de Tula
TTITLE6=El carretero
TTITLE7=Hasta siempre Comandante
TTITLE8=Yolanda
TTITLE9=Monton de estrellas
TTITLE10=Te espero en el Guateque
TTITLE11=Mujeres de Mayari
TTITLE12=Guajira Guantanamera
EXTD=
EXTT0=
EXTT1=
EXTT2=
EXTT3=
EXTT4=
EXTT5=
EXTT6=
EXTT7=
EXTT8=
EXTT9=
EXTT10=
EXTT11=
EXTT12=
PLAYORDER=
